<?xml version="1.0" encoding="UTF-8"?>
<svg version="1.1" xmlns="http://www.w3.org/2000/svg" width="398" height="208">
<path d="M0 0 C7.53404415 5.87507511 16.81691057 13.29738031 19 23 C17.71186658 23.83878455 16.41936744 24.67086783 15.125 25.5 C14.40570313 25.9640625 13.68640625 26.428125 12.9453125 26.90625 C11 28 11 28 9 28 C7.84375 26.34765625 7.84375 26.34765625 6.5 24.0625 C-1.4775487 11.80713533 -13.72646482 4.57010954 -27.8671875 1.46875 C-42.65263825 -0.7435369 -56.31729518 2.11615646 -69 10 C-80.32398354 18.6369366 -89.05452296 30.09429605 -91.71875 44.36328125 C-93.44722114 60.5676982 -90.90082386 75.40502547 -80.9609375 88.734375 C-71.1825394 100.13674734 -59.0231435 107.04133747 -44 109 C-28.56668876 109.98170471 -14.88061258 105.64014001 -2.5546875 96.26171875 C1.9870323 92.24083838 6.26916742 87.46166516 9 82 C12.91211733 83.15585285 15.8745041 84.35534962 19 87 C14.2161274 100.15564965 2.40660081 109.45717959 -9.8359375 115.38500977 C-26.60391566 123.0148316 -45.7622533 123.31660242 -63 117 C-72.02818378 113.15355526 -79.1300873 107.95254051 -86 101 C-86.70898438 100.31292969 -87.41796875 99.62585938 -88.1484375 98.91796875 C-99.61809866 87.07477456 -104.60266959 71.41475639 -104.4375 55.1875 C-104.42992676 54.13796143 -104.42235352 53.08842285 -104.41455078 52.00708008 C-104.02694443 33.6778264 -96.71061783 19.13247094 -84 6 C-60.15793773 -14.54294667 -26.43278229 -17.46144786 0 0 Z " fill="#0B8B7B" transform="translate(104,38)"/>
<path d="M0 0 C9.09998018 8.70504433 14.18420421 20.7300531 14.5625 33.3125 C13.97141439 47.35078326 8.66054334 58.78653474 -1.57421875 68.46484375 C-12.49102435 76.93509869 -24.3547429 79.40311361 -37.875 78.25 C-50.00495863 75.85126661 -60.15062344 69.97458355 -67.875 60.25 C-74.85200728 48.77119866 -77.73127013 37.65595227 -75.33984375 24.25 C-72.18598595 11.84137916 -65.93890109 1.75759679 -54.875 -5.1875 C-36.63772111 -15.18130298 -16.04678402 -13.18986906 0 0 Z M-57.6875 11.9375 C-63.68413531 19.30081033 -65.64783275 27.58785023 -65.32421875 36.97265625 C-64.16915599 45.3995924 -60.4284663 53.67955365 -53.875 59.25 C-44.68897632 65.80492749 -36.1541499 68.33833903 -24.875 67.25 C-14.68905934 65.1822818 -8.01327775 59.13104556 -1.4375 51.375 C3.43290987 41.63418027 4.59009112 32.13073802 1.15625 21.765625 C-2.66528802 12.44338831 -9.46248622 5.30389468 -18.8125 1.375 C-33.57914662 -3.28508572 -47.05518767 0.94477031 -57.6875 11.9375 Z " fill="#0B8B7B" transform="translate(213.875,80.75)"/>
<path d="M0 0 C3.96 0 7.92 0 12 0 C18.77398225 16.8781904 25.50633986 33.77233751 32.1875 50.6875 C32.52073273 51.53040588 32.85396545 52.37331177 33.19729614 53.24176025 C34.14674747 55.64389469 35.09505912 58.04647558 36.04296875 60.44921875 C36.32786163 61.16980972 36.61275452 61.8904007 36.90628052 62.63282776 C37.99916481 65.40664095 39.05699279 68.17097838 40 71 C49.53109329 47.41146409 58.74788336 23.69890812 68 0 C71.96 0 75.92 0 80 0 C79.3921395 4.6461066 78.13106404 8.58656999 76.37402344 12.92431641 C75.97027528 13.92832599 75.97027528 13.92832599 75.55837059 14.9526186 C74.66447096 17.17131059 73.76195116 19.38638758 72.859375 21.6015625 C72.22186729 23.17894764 71.58490605 24.75655374 70.94845581 26.33436584 C69.24199977 30.56055127 67.52815677 34.78370419 65.81287384 39.00631332 C64.04198145 43.36940153 62.27785737 47.73522392 60.51318359 52.10083008 C57.68431692 59.09705425 54.85177908 66.09178028 52.01660156 73.08544922 C48.43596848 81.91883224 44.86724702 90.75697093 41.3046875 99.59765625 C40.80458278 100.83836556 40.30446105 102.079068 39.80432129 103.31976318 C38.86078588 105.66041538 37.91726319 108.00107271 36.97375488 110.34173584 C34.85108626 115.60729498 32.72777031 120.87258759 30.6015625 126.13671875 C30.24577118 127.01940933 29.88997986 127.90209991 29.52340698 128.8115387 C29.20195709 129.60680466 28.8805072 130.40207062 28.54931641 131.22143555 C28.27197662 131.90852097 27.99463684 132.59560638 27.70889282 133.30351257 C27.18551955 134.55602373 26.60707558 135.78584885 26 137 C22.04 137 18.08 137 14 137 C16.02020198 130.73244464 18.2945358 124.65781634 20.828125 118.58203125 C21.5528009 116.8160495 22.27673787 115.04976437 23 113.28320312 C24.12771716 110.53513186 25.25973056 107.78919647 26.40429688 105.0480957 C27.51744445 102.37725509 28.61173794 99.69932401 29.703125 97.01953125 C30.04885559 96.20378128 30.39458618 95.38803131 30.75079346 94.54756165 C34.26118347 85.83353668 31.41713078 80.06832975 27.94921875 71.75 C27.5386171 70.7508255 27.12801544 69.751651 26.70497131 68.72219849 C25.82590841 66.58486706 24.94406347 64.44867811 24.05969238 62.3135376 C22.6833182 58.9899019 21.31459409 55.66321651 19.94824219 52.33544922 C18.13911516 47.92955049 16.32801357 43.52447427 14.51513672 39.12011719 C11.48967237 31.76405824 8.4828656 24.40070445 5.51431274 17.02148438 C4.76454817 15.16109827 4.00867583 13.30317742 3.25268555 11.4453125 C2.81351807 10.3521875 2.37435059 9.2590625 1.921875 8.1328125 C1.54643555 7.20355957 1.17099609 6.27430664 0.78417969 5.31689453 C0 3 0 3 0 0 Z " fill="#0B8B7B" transform="translate(318,71)"/>
<path d="M0 0 C3.63 0 7.26 0 11 0 C11 51.81 11 103.62 11 157 C7.37 157 3.74 157 0 157 C0 105.19 0 53.38 0 0 Z " fill="#0C8B7B" transform="translate(291,0)"/>
<path d="M0 0 C3.63 0 7.26 0 11 0 C11 51.81 11 103.62 11 157 C7.37 157 3.74 157 0 157 C0 105.19 0 53.38 0 0 Z " fill="#0C8B7B" transform="translate(251,0)"/>
</svg>
